<?xml version="1.0" encoding="UTF-8" standalone="no"?>
<!-- Created with Inkscape (https://www.inkscape.org/) -->

<svg
   id="svg3004"
   version="1.1"
   inkscape0:version="0.48.2 r9819"
   width="300"
   height="300"
   xml:space="preserve"
   sodipodi0:docname="r2.svg"
   sodipodi:docname="r2unity.svg"
   inkscape:version="1.4.3 (0d15f75042, 2025-12-25)"
   xmlns:inkscape="http://www.inkscape.org/namespaces/inkscape"
   xmlns:sodipodi="http://sodipodi.sourceforge.net/DTD/sodipodi-0.dtd"
   xmlns="http://www.w3.org/2000/svg"
   xmlns:svg="http://www.w3.org/2000/svg"
   xmlns:inkscape0="https://www.inkscape.org/namespaces/inkscape"
   xmlns:sodipodi0="https://sodipodi.sourceforge.net/DTD/sodipodi-0.dtd"
   xmlns:ns0="https://creativecommons.org/ns#"
   xmlns:ns="https://www.w3.org/1999/02/22-rdf-syntax-ns#"
   xmlns:ns1="https://purl.org/dc/elements/1.1/"><sodipodi:namedview
     id="namedview1"
     pagecolor="#ffffff"
     bordercolor="#000000"
     borderopacity="0.25"
     inkscape:showpageshadow="2"
     inkscape:pageopacity="0.0"
     inkscape:pagecheckerboard="0"
     inkscape:deskcolor="#d1d1d1"
     showgrid="false"
     showguides="true"
     inkscape:zoom="1.6871568"
     inkscape:cx="108.17015"
     inkscape:cy="122.39526"
     inkscape:window-width="1920"
     inkscape:window-height="1014"
     inkscape:window-x="0"
     inkscape:window-y="0"
     inkscape:window-maximized="1"
     inkscape:current-layer="svg3004" /><metadata
     id="metadata3010"><RDF><ns0:Work
         ns:about=""><ns1:format>image/svg+xml</ns1:format><ns1:type
           ns:resource="https://purl.org/dc/dcmitype/StillImage" /><ns1:title /></ns0:Work></RDF></metadata><defs
     id="defs3008"><inkscape:path-effect
       effect="lattice2"
       gridpoint0="84.951897,130.9714"
       gridpoint1="135.07826,155.69281"
       gridpoint2="88.211819,181.6544"
       gridpoint3="134.78191,208.47467"
       gridpoint4="98.854137,153.32196"
       gridpoint5="123.10234,153.32196"
       gridpoint6="98.854137,193.80502"
       gridpoint7="123.10234,193.80502"
       gridpoint8x9="110.97824,153.32196"
       gridpoint10x11="110.97824,193.80502"
       gridpoint12="86.730036,163.44272"
       gridpoint13="135.22644,163.44272"
       gridpoint14="86.730036,183.68426"
       gridpoint15="135.22644,183.68426"
       gridpoint16="98.854137,163.44272"
       gridpoint17="123.10234,163.44272"
       gridpoint18="98.854137,183.68426"
       gridpoint19="123.10234,183.68426"
       gridpoint20x21="110.97824,163.44272"
       gridpoint22x23="110.97824,183.68426"
       gridpoint24x26="86.730036,173.56349"
       gridpoint25x27="135.22644,173.56349"
       gridpoint28x30="98.854137,173.56349"
       gridpoint29x31="123.10234,173.56349"
       gridpoint32x33x34x35="110.97824,173.56349"
       id="path-effect4"
       is_visible="true"
       lpeversion="1"
       horizontal_mirror="false"
       vertical_mirror="false"
       perimetral="true"
       live_update="true" /><inkscape:path-effect
       effect="fillet_chamfer"
       id="path-effect3"
       is_visible="true"
       lpeversion="1"
       nodesatellites_param="F,0,0,1,0,0,0,1 @ F,0,0,1,0,0,0,1 @ F,0,0,1,0,0,0,1 @ F,0,0,1,0,0,0,1 @ F,0,0,1,0,0,0,1 @ F,0,0,1,0,0,0,1 @ F,0,0,1,0,0,0,1 @ F,0,0,1,0,0,0,1 @ F,0,0,1,0,0,0,1 @ F,0,0,1,0,0,0,1 @ F,0,0,1,0,0,0,1 @ F,0,0,1,0,0,0,1 @ F,0,0,1,0,0,0,1 @ F,0,0,1,0,0,0,1 @ F,0,0,1,0,0,0,1 @ F,0,0,1,0,0,0,1 @ F,0,0,1,0,0,0,1 @ F,0,0,1,0,0,0,1 @ F,0,0,1,0,0,0,1"
       radius="0"
       unit="px"
       method="auto"
       mode="F"
       chamfer_steps="1"
       flexible="false"
       use_knot_distance="true"
       apply_no_radius="true"
       apply_with_radius="true"
       only_selected="false"
       hide_knots="false" /><inkscape:path-effect
       effect="lattice2"
       gridpoint0="86.730036,153.32196"
       gridpoint1="135.22644,153.32196"
       gridpoint2="86.730036,193.80502"
       gridpoint3="135.22644,193.80502"
       gridpoint4="98.854137,153.32196"
       gridpoint5="123.10234,153.32196"
       gridpoint6="98.854137,193.80502"
       gridpoint7="123.10234,193.80502"
       gridpoint8x9="110.97824,153.32196"
       gridpoint10x11="110.97824,193.80502"
       gridpoint12="86.730036,163.44272"
       gridpoint13="135.22644,163.44272"
       gridpoint14="86.730036,183.68426"
       gridpoint15="135.22644,183.68426"
       gridpoint16="98.854137,163.44272"
       gridpoint17="123.10234,163.44272"
       gridpoint18="98.854137,183.68426"
       gridpoint19="123.10234,183.68426"
       gridpoint20x21="110.97824,163.44272"
       gridpoint22x23="110.97824,183.68426"
       gridpoint24x26="86.730036,173.56349"
       gridpoint25x27="135.22644,173.56349"
       gridpoint28x30="98.854137,173.56349"
       gridpoint29x31="123.10234,173.56349"
       gridpoint32x33x34x35="110.97824,173.56349"
       id="path-effect1"
       is_visible="true"
       lpeversion="1"
       horizontal_mirror="false"
       vertical_mirror="false"
       perimetral="false"
       live_update="true" /><clipPath
       clipPathUnits="userSpaceOnUse"
       id="clipPath3018"><path
         d="M 0,841.89 H 1190.55 V 0 H 0 Z"
         id="path3020"
         inkscape0:connector-curvature="0" /></clipPath></defs><sodipodi0:namedview
     pagecolor="#ffffff"
     bordercolor="#666666"
     borderopacity="1"
     objecttolerance="10"
     gridtolerance="10"
     guidetolerance="10"
     inkscape0:pageopacity="0"
     inkscape0:pageshadow="2"
     inkscape0:window-width="791"
     inkscape0:window-height="818"
     id="namedview3006"
     showgrid="false"
     inkscape0:zoom="0.39912236"
     inkscape0:cx="715.69007"
     inkscape0:cy="676.77258"
     inkscape0:window-x="2687"
     inkscape0:window-y="256"
     inkscape0:window-maximized="0"
     inkscape0:current-layer="g3012" /><g
     id="g1"
     transform="translate(-98.390382,1.7781394)"><path
       class="st0"
       d="M 367.87307,204.68954 V 76.881415 L 257.18211,12.977358 v 49.069187 l 43.36347,25.10517 c 1.71171,1.141147 1.71171,3.423431 0,3.994001 L 249.1941,120.81547 c -1.71172,1.14113 -3.42343,0.57056 -4.56457,0 L 193.27805,91.145716 c -1.71172,-0.57057 -1.71172,-3.423431 0,-3.994001 l 43.36347,-25.10517 V 12.977358 L 125.37998,76.881415 v 127.808125 -0.57057 0.57057 l 42.22233,-24.53459 v -50.21034 c 0,-1.71171 2.28229,-2.85285 3.42343,-2.28228 l 51.35148,29.66974 c 1.71171,1.14114 2.28229,2.28229 2.28229,3.994 v 59.33949 c 0,1.71171 -2.28229,2.85286 -3.42344,2.28229 l -43.36346,-25.10517 -42.22233,24.53459 110.69096,64.47464 110.69096,-63.90406 -42.22232,-24.5346 -43.36347,25.10517 c -1.71172,1.14114 -3.42344,0 -3.42344,-2.28229 v -59.33949 c 0,-1.71171 1.14115,-3.42343 2.28229,-3.994 l 51.35148,-29.66974 c 1.71171,-1.14114 3.42343,0 3.42343,2.28229 v 50.21033 z"
       id="path6"
       style="fill:#4c4c4c;stroke-width:5.70575" /><path
       d="m 246.34124,286.85191 110.69096,-63.90406 -42.22232,-24.5346 -43.36347,25.10517 c -1.71172,1.14114 -3.42344,0 -3.42344,-2.28229 v -59.33949 c 0,-1.71171 1.14115,-3.42343 2.28229,-3.994 l 51.35148,-29.66974 c 1.71171,-1.14114 3.42343,0 3.42343,2.28229 v 50.21033 l 42.22232,24.53459 V 76.881415 L 246.34124,147.06177 Z"
       id="path8"
       style="stroke-width:5.70575" /><path
       d="m 257.18211,12.977358 v 49.069187 l 43.36347,25.10517 c 1.71171,1.141147 1.71171,3.423431 0,3.994001 L 249.1941,120.81547 c -1.71172,1.14113 -3.42343,0.57056 -4.56457,0 L 193.27805,91.145716 c -1.71172,-0.57057 -1.71172,-3.423431 0,-3.994001 l 43.36347,-25.10517 V 12.977358 L 125.37998,76.881415 246.34124,147.06177 367.30249,76.881415 Z"
       fill="#808080"
       id="path10"
       style="stroke-width:5.70575" /><path
       class="st0"
       d="m 221.80664,223.51842 -43.36346,-25.10517 -42.22233,24.5346 110.69096,63.90406 V 147.06177 L 125.37998,76.881415 v 127.808125 -0.57057 0.57057 l 42.22233,-24.53459 v -50.21034 c 0,-1.71171 2.28229,-2.85285 3.42343,-2.28228 l 51.35148,29.66974 c 1.71171,1.14114 2.28229,2.28229 2.28229,3.994 v 59.33949 c 0.57057,2.28229 -1.14115,3.994 -2.85287,2.85286 z"
       id="path12"
       style="fill:#4c4c4c;stroke-width:5.70575" /><path
       d="m 130.50672,157.34064 c 0.008,15.36455 0.0246,46.08443 0.0246,46.08443 1.42202,0.81271 4.26521,2.43766 4.26521,2.43766 -0.005,0.87082 -0.0147,2.61194 -0.0147,2.61194 -9.88818,-5.69472 -29.65859,-17.08073 -29.65859,-17.08073 -0.0325,-0.84877 -0.0974,-2.5458 -0.0974,-2.5458 1.90448,1.08845 5.71232,3.26471 5.71232,3.26471 -0.24252,-8.17433 -0.72742,-24.51809 -0.72742,-24.51809 -0.12897,-4.34695 0.011,-8.10186 -1.29908,-12.84284 -0.28419,-1.18075 -3.03709,-8.57483 -4.23577,-6.54233 0.40069,1.76594 0.63521,3.6572 0.69273,5.25164 0.25795,7.15035 -3.44702,9.6275 -8.916587,6.72371 -5.714159,-3.03364 -10.079562,-10.23582 -10.540664,-17.40471 -0.481184,-7.48112 4.647061,-8.93706 10.380106,-6.1078 6.149635,3.03485 11.186845,9.45091 14.190025,17.41181 0.0562,0.0286 0.1684,0.0858 0.1684,0.0858 -0.10226,-3.59228 -0.3067,-10.77469 -0.3067,-10.77469 8.29063,4.40461 16.658,9.5095 24.92766,13.6037 -0.005,0.87066 -0.0147,2.61146 -0.0147,2.61146 -1.51651,-0.75662 -3.03303,-1.51323 -4.54954,-2.26985 z"
       style="fill:#4c4c4c;fill-opacity:1;fill-rule:nonzero;stroke:none;stroke-width:0.372434"
       id="path3492-8"
       inkscape0:connector-curvature="0"
       inkscape:path-effect="#path-effect4"
       inkscape:original-d="m 130.80153,156.32677 v 35.47492 h 4.42491 v 2.00333 h -30.88538 v -2.00333 h 5.92621 v -19.19798 c 0,-3.42193 0.25065,-6.42749 -0.91732,-9.68259 -0.25065,-0.83463 -2.75379,-5.59213 -4.00667,-3.50574 0.33445,1.25251 0.5013,2.67111 0.5013,3.92398 0,5.5914 -3.84019,9.18056 -9.348887,9.18056 -5.759361,0 -9.765657,-4.00629 -9.765657,-9.76565 0,-6.00963 5.258796,-9.26435 10.767504,-9.26435 5.92509,0 10.68259,3.17093 13.43936,8.26287 h 0.16536 v -8.43083 c 8.01222,0.25064 16.10936,1.00185 24.12418,1.00185 v 2.00296 z"
       transform="translate(87.128832,5.3344183)" /><path
       d="m 274.61277,184.78795 43.89007,-47.00087 v 53.81172 z"
       style="fill:#000000;fill-opacity:1;fill-rule:nonzero;stroke:none;stroke-width:0.387558"
       id="path3496-8"
       inkscape0:connector-curvature="0"
       sodipodi:nodetypes="cccc" /><path
       d="M 222.25471,101.29541 246.58524,65.025816 288.87743,91.08788 Z"
       style="fill:#808080;fill-opacity:1;fill-rule:nonzero;stroke:none;stroke-width:0.387558"
       id="path3496-8-5"
       inkscape0:connector-curvature="0"
       sodipodi:nodetypes="cccc" /></g></svg>
